<?xml version="1.0" encoding="UTF-8"?>
<svg version="1.1" xmlns="http://www.w3.org/2000/svg" width="288" height="278">
<path d="M0 0 C-0.78375 0.9075 -1.5675 1.815 -2.375 2.75 C-3.58396134 4.16613077 -4.79219927 5.58287923 -6 7 C-6.75023437 7.87269531 -7.50046875 8.74539062 -8.2734375 9.64453125 C-18.21162315 21.3540339 -28.3387068 34.10095553 -35 48 C-35.66 48 -36.32 48 -37 48 C-37.5775 46.865625 -38.155 45.73125 -38.75 44.5625 C-40.35492635 41.62689703 -40.35492635 41.62689703 -43.25 40.0625 C-43.8275 40.041875 -44.405 40.02125 -45 40 C-46.14814997 42.29629994 -46.30769809 44.07698086 -46.5625 46.625 C-46.64628906 47.44226563 -46.73007813 48.25953125 -46.81640625 49.1015625 C-46.87699219 49.72804688 -46.93757812 50.35453125 -47 51 C-49.47205252 49.83161697 -51.77277218 48.53323786 -54.1171875 47.1171875 C-72.89632199 35.80041507 -96.69093035 25.90743964 -119 30 C-122.24897236 30.76609647 -122.24897236 30.76609647 -125 32 C-127.84001528 40.52004583 -124.50380887 49.14297405 -121 57 C-114.60634816 69.21705068 -106.15479866 81.25169932 -92.58203125 85.8125 C-90.73864483 86.28231884 -88.87051233 86.65360883 -87 87 C-88.04719116 90.4906372 -89.29938971 93.66414625 -91 96.875 C-95.30647004 105.4075955 -97.0556629 115.65462733 -94.0546875 124.91796875 C-91.03729059 131.34179802 -87.88785988 134.63206637 -81.4375 137.6875 C-72.12623023 140.87893333 -61.49374244 141.1638841 -52.5546875 136.80859375 C-40.25816199 129.36168803 -37.49025617 115.16498339 -34.1875 102.0625 C-33.78543077 100.37647491 -33.38699179 98.68954953 -33 97 C-32.34 97 -31.68 97 -31 97 C-30.63648438 98.46759766 -30.63648438 98.46759766 -30.265625 99.96484375 C-28.55824368 106.69560201 -26.83164047 113.10918751 -23.734375 119.36328125 C-23 121 -23 121 -23 123 C-22.34 123 -21.68 123 -21 123 C-23.11822418 108.79877564 -23.11822418 108.79877564 -27 95 C-23.32164701 96.50103194 -21.40833378 98.60556527 -18.875 101.625 C-11.21876147 110.32469962 -1.72639964 118.99096874 10.296875 120.23828125 C19.04495184 120.50295236 24.91090695 117.59509712 31.33203125 111.76171875 C37.06157207 105.71014285 40.82567069 99.18869034 41.0625 90.78125 C40.60693078 82.46711166 36.09244111 76.44660802 30.24609375 70.80859375 C25.52688657 67.00860605 20.23374156 64.0300609 15 61 C15.35191406 60.58492188 15.70382813 60.16984375 16.06640625 59.7421875 C24.09815669 49.71822742 28.71340792 38.28899648 32 26 C49.20045339 42.69455771 60.23925721 64.5416249 65 88 C65.26055176 89.28269775 65.26055176 89.28269775 65.52636719 90.59130859 C69.14190374 109.96761991 68.50591899 131.04738583 63 150 C62.75862305 150.83176758 62.51724609 151.66353516 62.26855469 152.52050781 C52.23055459 185.89212322 29.56542629 213.11636252 -0.92797852 229.93945312 C-9.70248955 234.63880215 -18.34126222 238.47547621 -28 241 C-28.70044434 241.19319824 -29.40088867 241.38639648 -30.12255859 241.58544922 C-50.6163151 247.07524841 -73.42388145 247.20170989 -94 242 C-94.68916504 241.83371094 -95.37833008 241.66742188 -96.08837891 241.49609375 C-115.97361491 236.61849782 -134.4651359 226.31172474 -150 213 C-150 212.34 -150 211.68 -150 211 C-150.59554687 210.72800781 -151.19109375 210.45601562 -151.8046875 210.17578125 C-170.12317406 200.36463454 -182.54654701 170.86841351 -188.2578125 152.24951172 C-195.92046298 126.07492919 -195.53390881 99.00223478 -187 73 C-186.65324219 71.93265625 -186.30648437 70.8653125 -185.94921875 69.765625 C-175.11479189 39.23562491 -150.94474616 12.46901288 -122 -2 C-82.65611279 -20.44939344 -38.61128436 -19.93968932 0 0 Z M-151 164 C-151.57611569 165.99193718 -151.57611569 165.99193718 -151.8125 168.25 C-151.92207031 168.99765625 -152.03164062 169.7453125 -152.14453125 170.515625 C-151.93961426 174.03798184 -150.93713903 176.05303393 -149 179 C-145.90690702 181.06523514 -145.90690702 181.06523514 -142.375 182.625 C-136.23080722 185.51399131 -136.23080722 185.51399131 -135.0390625 188.0234375 C-135 190 -135 190 -136 193 C-138.4405948 194.09405974 -139.62918518 194.1165418 -142.1875 193.3125 C-144 192 -144 192 -144.75 189.875 C-144.8325 189.25625 -144.915 188.6375 -145 188 C-147.31 187.67 -149.62 187.34 -152 187 C-153.16912906 190.50738719 -152.61283833 192.05459262 -151.07421875 195.34765625 C-149.23197353 198.18136435 -147.1483741 198.97072385 -144 200 C-138.56841515 200.59253653 -134.76898649 199.65962708 -130 197 C-126.96365827 193.57187224 -126.63700047 190.46348228 -126.50390625 186.0625 C-127.25709152 182.93114708 -128.77321905 181.30051542 -131 179 C-134.07245301 177.32484869 -137.19962157 175.99484064 -140.41796875 174.625 C-143 173 -143 173 -143.953125 170.42578125 C-144 168 -144 168 -142.5625 166.1875 C-141.7890625 165.5996875 -141.7890625 165.5996875 -141 165 C-138.5625 165.8125 -138.5625 165.8125 -136 167 C-135.67 167.99 -135.34 168.98 -135 170 C-132.69 170 -130.38 170 -128 170 C-128.24689532 166.37886858 -128.59632409 164.46675027 -131 161.6875 C-138.14065311 157.67088263 -145.042846 158.042846 -151 164 Z M-124 160 C-124 161.98 -124 163.96 -124 166 C-121.03 166 -118.06 166 -115 166 C-115 176.89 -115 187.78 -115 199 C-113.02 199 -111.04 199 -109 199 C-107.64894855 197.87572365 -107.64894855 197.87572365 -107.88647461 194.94897461 C-107.88663366 193.60008729 -107.89232388 192.25119386 -107.90234375 190.90234375 C-107.90446617 189.83905602 -107.90446617 189.83905602 -107.90663147 188.75428772 C-107.91224557 186.48198288 -107.92480037 184.20977525 -107.9375 181.9375 C-107.94251319 180.40039204 -107.94707641 178.86328255 -107.95117188 177.32617188 C-107.96221958 173.55074358 -107.97949359 169.77538829 -108 166 C-105.36 166 -102.72 166 -100 166 C-100 164.02 -100 162.04 -100 160 C-107.92 160 -115.84 160 -124 160 Z M-95 160 C-95 172.87 -95 185.74 -95 199 C-93.02 199 -91.04 199 -89 199 C-88.67 189.1 -88.34 179.2 -88 169 C-84.5625 183.4375 -84.5625 183.4375 -83.48266602 187.99780273 C-83.20092529 189.17286377 -82.91918457 190.3479248 -82.62890625 191.55859375 C-82.34088135 192.76829834 -82.05285645 193.97800293 -81.75610352 195.22436523 C-81.27708166 197.88838415 -81.27708166 197.88838415 -80 199 C-78.35 199 -76.7 199 -75 199 C-72.69 189.1 -70.38 179.2 -68 169 C-67.67 178.9 -67.34 188.8 -67 199 C-65.02 199 -63.04 199 -61 199 C-61 186.13 -61 173.26 -61 160 C-64.63 160 -68.26 160 -72 160 C-72.83841864 163.74892907 -73.67092672 167.49900359 -74.5 171.25 C-74.85771484 172.84521484 -74.85771484 172.84521484 -75.22265625 174.47265625 C-75.44824219 175.49746094 -75.67382812 176.52226562 -75.90625 177.578125 C-76.11572266 178.52075195 -76.32519531 179.46337891 -76.54101562 180.43457031 C-77.1174099 183.22188558 -77.1174099 183.22188558 -77 187 C-77.66 187 -78.32 187 -79 187 C-79.03738281 186.45214844 -79.07476562 185.90429688 -79.11328125 185.33984375 C-80.08006388 172.29937054 -80.08006388 172.29937054 -84 160 C-87.63 160 -91.26 160 -95 160 Z M-52 163 C-53.69618829 165.94989267 -54 167.59882202 -54 171 C-52.68 171 -51.36 171 -50 171 C-49.34 169.02 -48.68 167.04 -48 165 C-42.25 163.875 -42.25 163.875 -40 165 C-39.24926395 168.31575089 -38.75166547 170.97906916 -39.5625 174.3125 C-41.64520105 176.75740993 -43.95507025 177.2056705 -47 178 C-47 178.66 -47 179.32 -47 180 C-46.15115234 180.29003906 -46.15115234 180.29003906 -45.28515625 180.5859375 C-44.55167969 180.84632813 -43.81820312 181.10671875 -43.0625 181.375 C-41.96615234 181.75785156 -41.96615234 181.75785156 -40.84765625 182.1484375 C-39 183 -39 183 -38 185 C-37.64247507 188.8612692 -37.47953003 191.16724804 -39.5625 194.5 C-42.98282303 196.60481417 -45.19164377 195.87885144 -49 195 C-49.33 193.02 -49.66 191.04 -50 189 C-51.65 189 -53.3 189 -55 189 C-53.96468529 193.82795274 -53.96468529 193.82795274 -51.3125 197.875 C-48.10989042 199.43302628 -45.56346263 199.87712198 -42 200 C-38.6798394 198.68446467 -36.5194066 197.5194066 -34 195 C-33.46087589 192.7071144 -33.46087589 192.7071144 -33.25 190.125 C-33.15203125 189.26132813 -33.0540625 188.39765625 -32.953125 187.5078125 C-33.00507198 184.7286489 -33.50933353 183.3221947 -35 181 C-37.03317007 179.26574227 -37.03317007 179.26574227 -39 178 C-38.175 177.29875 -37.35 176.5975 -36.5 175.875 C-33.77177671 173.24384271 -33.77177671 173.24384271 -33.5 170 C-34.06919917 166.58480501 -34.82770403 164.69664327 -37 162 C-42.70294663 159.00595302 -46.41308644 160.05417285 -52 163 Z M-25 163 C-27.29013653 166.4352048 -27.17842973 167.985331 -27 172 C-25.68 171.67 -24.36 171.34 -23 171 C-22.67 169.02 -22.34 167.04 -22 165 C-20.72125 164.938125 -19.4425 164.87625 -18.125 164.8125 C-17.40570313 164.77769531 -16.68640625 164.74289063 -15.9453125 164.70703125 C-15.30335938 164.80371094 -14.66140625 164.90039062 -14 165 C-11.43794158 168.84308764 -11.32633235 170.4340304 -12 175 C-14.01264754 177.97728926 -16.47895149 180.44963697 -19 183 C-23.6100328 187.81287424 -26.7532201 191.35050722 -28 198 C-27.00516798 199.21643292 -27.00516798 199.21643292 -25.05053711 199.11352539 C-23.8015564 199.10567017 -23.8015564 199.10567017 -22.52734375 199.09765625 C-21.17866211 199.09282227 -21.17866211 199.09282227 -19.80273438 199.08789062 C-18.85720703 199.07951172 -17.91167969 199.07113281 -16.9375 199.0625 C-15.98810547 199.05798828 -15.03871094 199.05347656 -14.06054688 199.04882812 C-11.70696935 199.0370011 -9.35351523 199.02052025 -7 199 C-7.33 197.68 -7.66 196.36 -8 195 C-12.95 195 -17.9 195 -23 195 C-20.38767236 189.66649773 -17.48782468 186.34508439 -12.90234375 182.578125 C-9.32172727 179.60775733 -7.35855052 177.73522823 -6.7265625 172.9140625 C-6.53589632 168.61674011 -6.56778937 166.61017972 -9.125 163 C-14.98067464 158.92648721 -18.84854425 159.68767768 -25 163 Z " fill="#3DB3E5" transform="translate(208,27)"/>
<path d="M0 0 C5.61 0 11.22 0 17 0 C16 3 16 3 14 4 C13.67 14.56 13.34 25.12 13 36 C14.32 36 15.64 36 17 36 C16.34 34.02 15.68 32.04 15 30 C15.66 30 16.32 30 17 30 C17.18433594 30.55429688 17.36867187 31.10859375 17.55859375 31.6796875 C19.33565977 36.19618905 19.33565977 36.19618905 23.09375 39.01171875 C27.24892716 39.98818538 30.86582151 40.33360597 35 39 C34.34 39.99 33.68 40.98 33 42 C30.9765625 42.328125 30.9765625 42.328125 28.625 42.25 C27.85414063 42.23453125 27.08328125 42.2190625 26.2890625 42.203125 C24.0945194 42.00838739 22.11635304 41.59915017 20 41 C20 40.34 20 39.68 20 39 C18.35 39 16.7 39 15 39 C15 39.66 15 40.32 15 41 C12.03 41.495 12.03 41.495 9 42 C9 42.66 9 43.32 9 44 C7 43 5 42 3 41 C3 41.66 3 42.32 3 43 C1.515 43.495 1.515 43.495 0 44 C-0.66 43.34 -1.32 42.68 -2 42 C-3.98821313 41.60235737 -5.98944339 41.26224651 -8 41 C-8 40.67 -8 40.34 -8 40 C-6.35 40 -4.7 40 -3 40 C-2.90203125 39.34257812 -2.8040625 38.68515625 -2.703125 38.0078125 C-1.66444311 31.39964665 -0.40228787 24.85174036 1 18.3125 C1.1659668 17.51021973 1.33193359 16.70793945 1.50292969 15.88134766 C1.93600478 13.90528301 2.46041426 11.94967504 3 10 C3.66 9.67 4.32 9.34 5 9 C5 19.23 5 29.46 5 40 C6.98 40 8.96 40 11 40 C11 27.13 11 14.26 11 1 C7.37 1 3.74 1 0 1 C0 0.67 0 0.34 0 0 Z " fill="#4AB1DC" transform="translate(136,186)"/>
<path d="M0 0 C0.66 0.33 1.32 0.66 2 1 C2.2371875 1.7734375 2.474375 2.546875 2.71875 3.34375 C4.51645245 7.0706941 6.80263245 7.76583646 10.5 9.5 C16.65672185 12.387666 16.65672185 12.387666 18.4453125 15.578125 C19 18 19 18 18.375 20.25 C17 22 17 22 15.1875 22.9375 C12.00307633 23.02848353 10.44644012 21.97074343 8 20 C8 18.68 8 17.36 8 16 C5.69 16 3.38 16 1 16 C1.66636549 20.11448641 1.66636549 20.11448641 3 24 C5.96825898 26.07032881 5.96825898 26.07032881 9 27 C7.375 27.6875 7.375 27.6875 5 28 C1.75 26.5625 1.75 26.5625 -1 25 C-0.979375 24.113125 -0.95875 23.22625 -0.9375 22.3125 C-0.99286219 19.37830369 -1.3305734 16.84506304 -2 14 C-1.01 13.67 -0.02 13.34 1 13 C1.66 13.33 2.32 13.66 3 14 C3 13.01 3 12.02 3 11 C3.66 11 4.32 11 5 11 C5 10.01 5 9.02 5 8 C4.01 8 3.02 8 2 8 C0.23537317 4.91190305 0 3.76687864 0 0 Z " fill="#4BB0DA" transform="translate(55,199)"/>
<path d="M0 0 C1.25 2.5625 1.25 2.5625 2 5 C2.66 5 3.32 5 4 5 C4 6.98 4 8.96 4 11 C5.65 11 7.3 11 9 11 C10.51553092 14.97450493 9.49888623 18.20481149 8.5625 22.25 C8.13130859 24.14492187 8.13130859 24.14492187 7.69140625 26.078125 C7.46324219 27.04234375 7.23507813 28.0065625 7 29 C6.34 29 5.68 29 5 29 C3.35 20.09 1.7 11.18 0 2 C-3.63 2 -7.26 2 -11 2 C-11 14.54 -11 27.08 -11 40 C-11.33 40 -11.66 40 -12 40 C-12.495 22.675 -12.495 22.675 -13 5 C-13.66 5 -14.32 5 -15 5 C-15.33 5.99 -15.66 6.98 -16 8 C-16 6.02 -16 4.04 -16 2 C-14.08654673 1.46748234 -12.1690705 0.94940517 -10.25 0.4375 C-9.18265625 0.14746094 -8.1153125 -0.14257812 -7.015625 -0.44140625 C-4.14843139 -0.97250558 -2.64159365 -1.17404162 0 0 Z " fill="#49B0DA" transform="translate(124,185)"/>
<path d="M0 0 C2.9375 0.9375 2.9375 0.9375 4.375 3.1875 C4.9962613 6.22477745 4.86673786 7.99491343 3.9375 10.9375 C2.9475 12.4225 2.9475 12.4225 1.9375 13.9375 C-1.1875 14.125 -1.1875 14.125 -4.0625 13.9375 C-3.4025 13.6075 -2.7425 13.2775 -2.0625 12.9375 C-2.0625 12.2775 -2.0625 11.6175 -2.0625 10.9375 C-3.7125 11.2675 -5.3625 11.5975 -7.0625 11.9375 C-7.0625 11.2775 -7.0625 10.6175 -7.0625 9.9375 C-8.3825 9.9375 -9.7025 9.9375 -11.0625 9.9375 C-11.3925 10.9275 -11.7225 11.9175 -12.0625 12.9375 C-13.0525 12.6075 -14.0425 12.2775 -15.0625 11.9375 C-15.0625 10.9475 -15.0625 9.9575 -15.0625 8.9375 C-14.0725 8.9375 -13.0825 8.9375 -12.0625 8.9375 C-11.7325 7.6175 -11.4025 6.2975 -11.0625 4.9375 C-11.0625 5.9275 -11.0625 6.9175 -11.0625 7.9375 C-9.7425 7.9375 -8.4225 7.9375 -7.0625 7.9375 C-6.9078125 6.514375 -6.9078125 6.514375 -6.75 5.0625 C-5.79979715 0.74339612 -4.37461519 -0.08927786 0 0 Z " fill="#42B2E1" transform="translate(165.0625,190.0625)"/>
<path d="M0 0 C0.66 0 1.32 0 2 0 C2.25394531 0.97839844 2.50789062 1.95679687 2.76953125 2.96484375 C4.62800556 10.06454166 6.56837361 17.06986479 9 24 C8.566875 23.505 8.13375 23.01 7.6875 22.5 C6.00259517 20.66781808 6.00259517 20.66781808 3 21 C3 19.35 3 17.7 3 16 C1.68 16.33 0.36 16.66 -1 17 C-0.01 17.99 0.98 18.98 2 20 C1.34 21.32 0.68 22.64 0 24 C-0.66 23.67 -1.32 23.34 -2 23 C-2.33 24.65 -2.66 26.3 -3 28 C-3.66 27.67 -4.32 27.34 -5 27 C-6.20525846 23.16340749 -5.87991359 20.51969845 -4.78515625 16.69921875 C-4.51123047 15.72275391 -4.23730469 14.74628906 -3.95507812 13.74023438 C-3.66052734 12.73283203 -3.36597656 11.72542969 -3.0625 10.6875 C-2.77181641 9.66076172 -2.48113281 8.63402344 -2.18164062 7.57617188 C-1.46428403 5.04778387 -0.7368019 2.52277668 0 0 Z " fill="#42B2DE" transform="translate(175,124)"/>
<path d="M0 0 C3.72916212 1.51523517 5.72147813 3.71256761 8.3125 6.75 C11.96481141 10.9223425 15.69246271 14.51731028 20 18 C17 20 17 20 14.3125 19.625 C13.1678125 19.315625 13.1678125 19.315625 12 19 C12.0928125 17.824375 12.0928125 17.824375 12.1875 16.625 C12.125625 15.75875 12.06375 14.8925 12 14 C11.01 13.34 10.02 12.68 9 12 C9.66 13.98 10.32 15.96 11 18 C10.34 18 9.68 18 9 18 C8.34 21.3 7.68 24.6 7 28 C6.67 28 6.34 28 6 28 C5.81824219 26.81664062 5.63648438 25.63328125 5.44921875 24.4140625 C4.13806055 16.09686984 2.82277393 7.96782996 0 0 Z " fill="#43B2DE" transform="translate(181,122)"/>
<path d="M0 0 C2.625 0.625 2.625 0.625 5 2 C5.8125 4.125 5.8125 4.125 6 6 C8.31 6 10.62 6 13 6 C12.34 6.66 11.68 7.32 11 8 C9.68 8 8.36 8 7 8 C7.33 8.99 7.66 9.98 8 11 C10.01508358 11.73323796 10.01508358 11.73323796 12 12 C12 13.65 12 15.3 12 17 C11.319375 16.566875 10.63875 16.13375 9.9375 15.6875 C6.96842137 13.89234502 6.96842137 13.89234502 3.4375 12.5625 C0.08099393 11.03681542 -1.87937131 10.00422398 -4 7 C-3.9375 4.375 -3.9375 4.375 -3 2 C-2.01 1.34 -1.02 0.68 0 0 Z " fill="#49B2DC" transform="translate(67,191)"/>
<path d="M0 0 C0.66 0.33 1.32 0.66 2 1 C2.77783203 3.43676758 2.77783203 3.43676758 3.5078125 6.64453125 C3.77207031 7.79630859 4.03632812 8.94808594 4.30859375 10.13476562 C4.57800781 11.34841797 4.84742187 12.56207031 5.125 13.8125 C5.40214844 15.01455078 5.67929688 16.21660156 5.96484375 17.45507812 C8 26.44284945 8 26.44284945 8 31 C7.34 31 6.68 31 6 31 C5.34 28.03 4.68 25.06 4 22 C3.690625 23.464375 3.38125 24.92875 3.0625 26.4375 C2.125 30.875 2.125 30.875 1 32 C-0.99958364 32.04080783 -3.00045254 32.04254356 -5 32 C-5 31.67 -5 31.34 -5 31 C-3.35 31 -1.7 31 0 31 C0 20.77 0 10.54 0 0 Z " fill="#55B0D3" transform="translate(119,195)"/>
<path d="M0 0 C2.25 2.25 2.25 2.25 3 5 C2.4375 7.75 2.4375 7.75 1 10 C-1.92916561 11.32284898 -2.87822605 11.04059132 -6 10 C-6.73046875 7.93359375 -6.73046875 7.93359375 -7.1875 5.4375 C-7.34605469 4.61121094 -7.50460938 3.78492188 -7.66796875 2.93359375 C-7.77753906 2.29550781 -7.88710938 1.65742188 -8 1 C-9.32 0.67 -10.64 0.34 -12 0 C-8.27926741 -1.86036629 -3.94099032 -0.9510489 0 0 Z " fill="#3BB4E4" transform="translate(71,211)"/>
<path d="M0 0 C2.29013653 3.4352048 2.17842973 4.985331 2 9 C1.67 9 1.34 9 1 9 C0.67 6.69 0.34 4.38 0 2 C-3.63 2 -7.26 2 -11 2 C-11 14.54 -11 27.08 -11 40 C-11.33 40 -11.66 40 -12 40 C-12.495 22.675 -12.495 22.675 -13 5 C-13.66 5 -14.32 5 -15 5 C-15.33 5.99 -15.66 6.98 -16 8 C-16 6.02 -16 4.04 -16 2 C-14.08654673 1.46748234 -12.1690705 0.94940517 -10.25 0.4375 C-9.18265625 0.14746094 -8.1153125 -0.14257812 -7.015625 -0.44140625 C-4.12626676 -0.97661121 -2.65472537 -1.18984313 0 0 Z " fill="#5AAED0" transform="translate(124,185)"/>
<path d="M0 0 C1.875 1.625 1.875 1.625 3 4 C3.1875 7.25 3.1875 7.25 3 10 C2.01 9.67 1.02 9.34 0 9 C0 8.34 0 7.68 0 7 C-0.763125 7.04125 -1.52625 7.0825 -2.3125 7.125 C-5 7 -5 7 -8 5 C-8 6.32 -8 7.64 -8 9 C-9.98 9.33 -11.96 9.66 -14 10 C-13 8 -13 8 -10 7 C-9.29618843 5.01276732 -8.6288189 3.01222047 -8 1 C-5.17116253 -0.41441874 -3.12623255 -0.31900332 0 0 Z " fill="#41B2DF" transform="translate(194,191)"/>
<path d="M0 0 C0.33 0 0.66 0 1 0 C1 10.23 1 20.46 1 31 C0.34 31 -0.32 31 -1 31 C-1.33 26.05 -1.66 21.1 -2 16 C-2.66 16.99 -3.32 17.98 -4 19 C-2.42105263 2.42105263 -2.42105263 2.42105263 0 0 Z " fill="#55B0D3" transform="translate(140,195)"/>
<path d="M0 0 C0.66 0 1.32 0 2 0 C3.26237731 2.52475462 3.09856404 4.31200466 3.0625 7.125 C3.05347656 8.03507813 3.04445312 8.94515625 3.03515625 9.8828125 C3.02355469 10.58148438 3.01195312 11.28015625 3 12 C3.99 11.67 4.98 11.34 6 11 C6 11.66 6 12.32 6 13 C5.01 13.495 5.01 13.495 4 14 C4.33 15.32 4.66 16.64 5 18 C4.2575 17.87625 3.515 17.7525 2.75 17.625 C1.8425 17.74875 0.935 17.8725 0 18 C-1.35278115 19.98689731 -2.68568305 21.98745218 -4 24 C-6.75 24.875 -6.75 24.875 -9 25 C-9 25.66 -9 26.32 -9 27 C-9.66 27 -10.32 27 -11 27 C-9.86086621 23.58259864 -8.86587863 22.84380651 -6.125 20.625 C-0.83005427 16.19415266 -0.83005427 16.19415266 1.203125 9.796875 C1.27257412 6.20867055 1.14284492 3.42853475 0 0 Z " fill="#4AAFD5" transform="translate(199,190)"/>
<path d="M0 0 C2.93200474 2.85276137 5.64315404 5.65079784 8 9 C6.6078125 8.7215625 6.6078125 8.7215625 5.1875 8.4375 C1.98656229 7.75876119 1.98656229 7.75876119 -1 9 C-1.33 10.65 -1.66 12.3 -2 14 C-1.34 14.33 -0.68 14.66 0 15 C-2.475 16.485 -2.475 16.485 -5 18 C-4.35702496 15.37426939 -3.71075589 12.74942697 -3.0625 10.125 C-2.88009766 9.37863281 -2.69769531 8.63226563 -2.50976562 7.86328125 C-1.11328125 2.2265625 -1.11328125 2.2265625 0 0 Z " fill="#4BAFD9" transform="translate(240,53)"/>
<path d="M0 0 C5.61 0 11.22 0 17 0 C16 3 16 3 14 4 C13.67 12.25 13.34 20.5 13 29 C12.67 29 12.34 29 12 29 C11.67 20.09 11.34 11.18 11 2 C7.37 1.67 3.74 1.34 0 1 C0 0.67 0 0.34 0 0 Z " fill="#45B0DC" transform="translate(136,186)"/>
<path d="M0 0 C3.75843663 1.87921831 5.14975355 3.02470615 7.75 6.125 C8.36359375 6.84945312 8.9771875 7.57390625 9.609375 8.3203125 C10.29773438 9.15175781 10.29773438 9.15175781 11 10 C8 11 8 11 5 10 C5 11.65 5 13.3 5 15 C4.67 15 4.34 15 4 15 C2.68 10.05 1.36 5.1 0 0 Z " fill="#53AED3" transform="translate(181,122)"/>
<path d="M0 0 C0.99 0.33 1.98 0.66 3 1 C3.94921875 3.80078125 3.94921875 3.80078125 4.6875 7.3125 C4.93886719 8.46363281 5.19023438 9.61476562 5.44921875 10.80078125 C6 14 6 14 6 18 C5.34 18 4.68 18 4 18 C3.34 15.03 2.68 12.06 2 9 C1.34 9.99 0.68 10.98 0 12 C0 8.04 0 4.08 0 0 Z " fill="#48AFD9" transform="translate(121,208)"/>
<path d="M0 0 C0.33 0.66 0.66 1.32 1 2 C2.65 1.34 4.3 0.68 6 0 C7.125 4.75 7.125 4.75 6 7 C5.34 7 4.68 7 4 7 C4 6.34 4 5.68 4 5 C3.236875 5.515625 2.47375 6.03125 1.6875 6.5625 C0.800625 7.036875 -0.08625 7.51125 -1 8 C-1.99 7.67 -2.98 7.34 -4 7 C-2.68 4.69 -1.36 2.38 0 0 Z " fill="#45B0DA" transform="translate(174,219)"/>
<path d="M0 0 C0.33 1.32 0.66 2.64 1 4 C1.66 3.67 2.32 3.34 3 3 C5.0234375 2.83203125 5.0234375 2.83203125 7.375 2.8125 C8.14585937 2.79832031 8.91671875 2.78414062 9.7109375 2.76953125 C12.25936718 3.02611376 13.84664966 3.62664101 16 5 C16.75 7.125 16.75 7.125 17 9 C16.01 8.67 15.02 8.34 14 8 C13.67 7.34 13.34 6.68 13 6 C10.45058627 5.68758629 7.99638487 5.48696579 5.4375 5.375 C4.37112305 5.31699219 4.37112305 5.31699219 3.28320312 5.2578125 C1.52257575 5.16328217 -0.23867728 5.08054183 -2 5 C-1.34 3.35 -0.68 1.7 0 0 Z " fill="#46B0D7" transform="translate(187,217)"/>
<path d="M0 0 C0.33 0.66 0.66 1.32 1 2 C2.32 1.67 3.64 1.34 5 1 C0.70024145 5.87305969 -4.37224317 8.8200442 -10 12 C-10.33 11.34 -10.66 10.68 -11 10 C-10.34 10 -9.68 10 -9 10 C-8.67 9.01 -8.34 8.02 -8 7 C-7.01 7.33 -6.02 7.66 -5 8 C-5 7.34 -5 6.68 -5 6 C-4.34 6 -3.68 6 -3 6 C-3 5.01 -3 4.02 -3 3 C-2.01 3 -1.02 3 0 3 C0 2.01 0 1.02 0 0 Z " fill="#4CAEDB" transform="translate(220,243)"/>
<path d="M0 0 C2.4375 0.75 2.4375 0.75 5 2 C5.8125 4.125 5.8125 4.125 6 6 C8.31 6 10.62 6 13 6 C12.34 6.66 11.68 7.32 11 8 C9.68 8 8.36 8 7 8 C6.67 8.66 6.34 9.32 6 10 C5.01 9.67 4.02 9.34 3 9 C3 6.69 3 4.38 3 2 C1.35 2 -0.3 2 -2 2 C-1.34 1.34 -0.68 0.68 0 0 Z " fill="#4FADD4" transform="translate(67,191)"/>
<path d="M0 0 C2.248136 3.37220401 3.16868014 6.63804748 4.1875 10.5 C4.37763672 11.17675781 4.56777344 11.85351562 4.76367188 12.55078125 C5.65867411 15.89960881 6.11900532 17.64298405 5 21 C4 20 4 20 3.9375 16.9375 C3.958125 15.968125 3.97875 14.99875 4 14 C2.35 13.67 0.7 13.34 -1 13 C-1 12.34 -1 11.68 -1 11 C-0.01 11 0.98 11 2 11 C1.67 10.113125 1.34 9.22625 1 8.3125 C0.08777857 5.29076653 -0.18330958 3.11626294 0 0 Z " fill="#50AED8" transform="translate(267,97)"/>
<path d="M0 0 C1 3 1 3 -0.14453125 5.48046875 C-0.69496094 6.37378906 -1.24539062 7.26710938 -1.8125 8.1875 C-2.35519531 9.08855469 -2.89789063 9.98960938 -3.45703125 10.91796875 C-3.96621094 11.60503906 -4.47539063 12.29210937 -5 13 C-5.66 13 -6.32 13 -7 13 C-7 13.99 -7 14.98 -7 16 C-7.66 16 -8.32 16 -9 16 C-7.51637716 9.73581469 -3.75837844 5.08486495 0 0 Z " fill="#4AB1D6" transform="translate(40,64)"/>
<path d="M0 0 C4.29 0.33 8.58 0.66 13 1 C13 1.66 13 2.32 13 3 C13.99 3.33 14.98 3.66 16 4 C16 4.66 16 5.32 16 6 C14.26982492 5.54548816 12.54090123 5.08621143 10.8125 4.625 C9.84957031 4.36976562 8.88664063 4.11453125 7.89453125 3.8515625 C5.17789793 3.05233704 2.60862825 2.0968638 0 1 C0 0.67 0 0.34 0 0 Z " fill="#43B2DB" transform="translate(122,59)"/>
<path d="M0 0 C3 2 3 2 3.8125 3.875 C4.0525376 6.59542619 3.59679105 7.79490759 2 10 C0.0625 10.875 0.0625 10.875 -2 11 C-2.99 10.34 -3.98 9.68 -5 9 C-3.1875 7.9375 -3.1875 7.9375 -1 7 C-0.01 7.33 0.98 7.66 2 8 C1.67 7.4225 1.34 6.845 1 6.25 C0 4 0 4 0 0 Z " fill="#4BAEDA" transform="translate(70,211)"/>
<path d="M0 0 C3.9036874 3.46994436 6.36588975 7.55224006 9 12 C4.59712222 10.65467623 2.45241369 8.90569587 0 5 C-0.25 2.1875 -0.25 2.1875 0 0 Z " fill="#47AED6" transform="translate(88,88)"/>
<path d="M0 0 C-0.33 0.66 -0.66 1.32 -1 2 C-1.66 2 -2.32 2 -3 2 C-4.14814997 4.29629994 -4.30769809 6.07698086 -4.5625 8.625 C-4.64628906 9.44226563 -4.73007813 10.25953125 -4.81640625 11.1015625 C-4.87699219 11.72804688 -4.93757812 12.35453125 -5 13 C-6.32 12.34 -7.64 11.68 -9 11 C-8.34 10.67 -7.68 10.34 -7 10 C-7.0928125 8.63875 -7.0928125 8.63875 -7.1875 7.25 C-6.87095602 1.76323761 -5.55437604 0 0 0 Z " fill="#53ABD0" transform="translate(166,65)"/>
<path d="M0 0 C1.65 0 3.3 0 5 0 C5.33 1.65 5.66 3.3 6 5 C2.25 6.125 2.25 6.125 0 5 C0 3.35 0 1.7 0 0 Z " fill="#3AB5E8" transform="translate(65,193)"/>
<path d="M0 0 C2.3125 -0.25 2.3125 -0.25 5 0 C6.625 1.9375 6.625 1.9375 8 4 C8.99 4.33 9.98 4.66 11 5 C12.6875 7.5625 12.6875 7.5625 14 10 C10.67312232 8.45315734 7.75296022 6.54045021 4.75 4.4375 C3.85796875 3.81746094 2.9659375 3.19742188 2.046875 2.55859375 C1.37140625 2.04425781 0.6959375 1.52992187 0 1 C0 0.67 0 0.34 0 0 Z " fill="#4CACD4" transform="translate(227,89)"/>
<path d="M0 0 C1.875 1.625 1.875 1.625 3 4 C3.1875 7.25 3.1875 7.25 3 10 C2.67 10 2.34 10 2 10 C1.67 7.69 1.34 5.38 1 3 C-1.97 3 -4.94 3 -8 3 C-8 2.34 -8 1.68 -8 1 C-5.17116253 -0.41441874 -3.12623255 -0.31900332 0 0 Z " fill="#55AACD" transform="translate(194,191)"/>
<path d="M0 0 C2.31 0.33 4.62 0.66 7 1 C5.7934375 2.175625 5.7934375 2.175625 4.5625 3.375 C2.01309583 5.71982856 2.01309583 5.71982856 1 8 C0.34 8 -0.32 8 -1 8 C-1.125 2.25 -1.125 2.25 0 0 Z " fill="#46B2DC" transform="translate(154,186)"/>
<path d="M0 0 C0.66 0 1.32 0 2 0 C2 1.65 2 3.3 2 5 C1.34 5 0.68 5 0 5 C0.061875 6.27875 0.12375 7.5575 0.1875 8.875 C0.29296875 11.0546875 0.29296875 11.0546875 0 13 C-0.99 13.66 -1.98 14.32 -3 15 C-2.68917128 13.24970238 -2.37626821 11.49977306 -2.0625 9.75 C-1.88847656 8.77546875 -1.71445313 7.8009375 -1.53515625 6.796875 C-1.09620271 4.50278205 -0.59651408 2.25708029 0 0 Z " fill="#5EADCF" transform="translate(175,124)"/>
<path d="M0 0 C5.61 0 11.22 0 17 0 C16.67 0.99 16.34 1.98 16 3 C15.01 3.33 14.02 3.66 13 4 C13 3.34 13 2.68 13 2 C8.71 1.67 4.42 1.34 0 1 C0 0.67 0 0.34 0 0 Z " fill="#50B3D8" transform="translate(136,186)"/>
<path d="M0 0 C0.66 0.99 1.32 1.98 2 3 C0.515 5.475 0.515 5.475 -1 8 C-1.99 7.34 -2.98 6.68 -4 6 C-2.84826645 3.53199953 -1.95216435 1.95216435 0 0 Z " fill="#48B0DB" transform="translate(163,158)"/>
<path d="M0 0 C0.99 0.99 1.98 1.98 3 3 C2.34 4.32 1.68 5.64 1 7 C0.34 7 -0.32 7 -1 7 C-1.99 5.02 -2.98 3.04 -4 1 C-2.68 1.33 -1.36 1.66 0 2 C0 1.34 0 0.68 0 0 Z " fill="#4CB2D8" transform="translate(172,68)"/>
<path d="M0 0 C0.33 0 0.66 0 1 0 C1 3.96 1 7.92 1 12 C-1.61973266 9.38026734 -1.70813314 7.64833578 -2 4 C-1.0625 1.625 -1.0625 1.625 0 0 Z " fill="#52ACD5" transform="translate(274,144)"/>
<path d="M0 0 C1 2 1 2 0.4375 4.5 C-1 7 -1 7 -4.125 8.3125 C-5.07375 8.539375 -6.0225 8.76625 -7 9 C-6.02180976 7.68677212 -5.0424189 6.37443848 -4.0625 5.0625 C-3.51722656 4.33160156 -2.97195312 3.60070312 -2.41015625 2.84765625 C-1 1 -1 1 0 0 Z " fill="#51ADD4" transform="translate(230,79)"/>
<path d="M0 0 C0.99 0.33 1.98 0.66 3 1 C1.02 3.31 -0.96 5.62 -3 8 C-3.33 6.68 -3.66 5.36 -4 4 C-3.34 4 -2.68 4 -2 4 C-2 3.34 -2 2.68 -2 2 C-1.34 2 -0.68 2 0 2 C0 1.34 0 0.68 0 0 Z " fill="#4EB0D5" transform="translate(247,219)"/>
<path d="M0 0 C1.01382963 3.6208201 1.49897691 7.27811418 2 11 C1.01 11 0.02 11 -1 11 C-2.26264601 6.70700357 -1.62950412 4.12168689 0 0 Z " fill="#4DB0D6" transform="translate(171,140)"/>
<path d="M0 0 C2.02054804 1.64169528 4.02043058 3.30911778 6 5 C6 5.33 6 5.66 6 6 C4.35 6 2.7 6 1 6 C0.4465236 3.92446352 0 2.15634036 0 0 Z " fill="#49AFD8" transform="translate(97,101)"/>
<path d="M0 0 C0.33 0.66 0.66 1.32 1 2 C1.66 2.33 2.32 2.66 3 3 C-0.303314 3.88935377 -3.62294375 4.46274105 -7 5 C-4.87219421 2.65941363 -2.88437779 1.29299694 0 0 Z " fill="#4DADD4" transform="translate(83,27)"/>
<path d="M0 0 C1.65 0 3.3 0 5 0 C5 0.66 5 1.32 5 2 C5.66 2.33 6.32 2.66 7 3 C7 3.66 7 4.32 7 5 C4.0625 4.1875 4.0625 4.1875 1 3 C0.67 2.01 0.34 1.02 0 0 Z " fill="#4BAFD6" transform="translate(78,252)"/>
<path d="M0 0 C0 1.32 0 2.64 0 4 C-0.66 4 -1.32 4 -2 4 C-2.33 4.66 -2.66 5.32 -3 6 C-3.66 4.35 -4.32 2.7 -5 1 C-3 0 -3 0 0 0 Z " fill="#45B3D7" transform="translate(177,206)"/>
<path d="M0 0 C-0.33 2.97 -0.66 5.94 -1 9 C-2.46132217 6.07735566 -3.34099246 4.07536854 -4 1 C-2 0 -2 0 0 0 Z " fill="#4BB1D9" transform="translate(82,188)"/>
<path d="M0 0 C-0.928125 0.4125 -1.85625 0.825 -2.8125 1.25 C-5.88054681 2.93441786 -7.19040465 4.08454083 -9 7 C-9.3125 4.6875 -9.3125 4.6875 -9 2 C-5.85636787 -0.61969344 -3.87356388 -1.57811862 0 0 Z " fill="#51ADD0" transform="translate(65,187)"/>
<path d="M0 0 C2.475 0.495 2.475 0.495 5 1 C4.67 2.98 4.34 4.96 4 7 C2.10786631 4.61426621 0.97608217 2.92824652 0 0 Z " fill="#4EB0DD" transform="translate(266,173)"/>
<path d="M0 0 C-0.66 0.66 -1.32 1.32 -2 2 C-5.29714793 1.67028521 -6.6226839 1.3773161 -9 -1 C-5.38055101 -2.34053666 -3.42632833 -1.61798838 0 0 Z " fill="#51ABDD" transform="translate(168,222)"/>
<path d="M0 0 C2.97 0.495 2.97 0.495 6 1 C6.33 2.32 6.66 3.64 7 5 C5.68 4.67 4.36 4.34 3 4 C3 3.01 3 2.02 3 1 C2.01 0.67 1.02 0.34 0 0 Z " fill="#4EABD2" transform="translate(162,190)"/>
<path d="M0 0 C4.67461851 -0.32613618 7.16674383 0.29417212 11 3 C9 4 9 4 6.8359375 3.44140625 C6.02382812 3.15136719 5.21171875 2.86132812 4.375 2.5625 C3.55773437 2.27503906 2.74046875 1.98757812 1.8984375 1.69140625 C1.27195312 1.46324219 0.64546875 1.23507813 0 1 C0 0.67 0 0.34 0 0 Z " fill="#4DB4D3" transform="translate(122,59)"/>
</svg>
